<svg id="Capa_1" enable-background="new 0 0 512 512" height="512" viewBox="0 0 512 512" width="512" xmlns="http://www.w3.org/2000/svg"><g><path d="m256 0-20 212.077 20 299.923 149.961-149.961c40.057-40.056 62.116-93.313 62.116-149.961 0-116.941-95.138-212.078-212.077-212.078z" fill="#9cf"/><path d="m43.923 212.077c0 56.648 22.06 109.905 62.116 149.961l149.961 149.962v-512c-116.94 0-212.077 95.137-212.077 212.077z" fill="#b3f2ff"/><path d="m256 60-20 152.077 20 152.077c83.855 0 152.077-68.222 152.077-152.077s-68.222-152.077-152.077-152.077z" fill="#8095ff"/><path d="m103.923 212.077c0 83.855 68.222 152.077 152.077 152.077v-304.154c-83.856 0-152.077 68.222-152.077 152.077z" fill="#9cf"/><path d="m256 90-20 122.077 20 122.077c67.313 0 122.077-54.764 122.077-122.077s-54.764-122.077-122.077-122.077z" fill="#e6f0f2"/><path d="m133.923 212.077c0 67.313 54.764 122.077 122.077 122.077v-244.154c-67.314 0-122.077 54.764-122.077 122.077z" fill="#fff5f5"/><path d="m299.1 185.1-43.1-43.1-20 73.577 20 73.577c33.664 0 60.953-27.29 60.953-60.953 0-16.832-6.822-32.07-17.853-43.101z" fill="#cc295f"/><path d="m212.899 185.1c-11.03 11.03-17.853 26.269-17.853 43.101 0 33.664 27.29 60.953 60.953 60.953v-147.154z" fill="#ff4d4d"/></g></svg>